HIERARCHY
ROOT Hips
{
	OFFSET	0.00	0.00	0.00
	CHANNELS 6 Xposition Yposition Zposition Zrotation Xrotation Yrotation
	JOINT LeftUpLeg
	{
		OFFSET	 0.126116	-0.014019	-0.065224
		CHANNELS 3 Zrotation Xrotation Yrotation
		JOINT LeftLeg
		{
			OFFSET	 0.000000	 0.000000	 0.569914
			CHANNELS 3 Zrotation Xrotation Yrotation
			JOINT LeftFoot
			{
				OFFSET	 0.000000	 0.000000	 0.544423
				CHANNELS 3 Zrotation Xrotation Yrotation
				JOINT LeftToeBase
				{
					OFFSET	 0.000000	 0.000000	 0.207117
					CHANNELS 3 Zrotation Xrotation Yrotation
					End Site
					{
						OFFSET	 0.000000	 0.000000	 0.207117
					}
				}
			}
		}
	}
	JOINT RightUpLeg
	{
		OFFSET	-0.124023	-0.008373	-0.065224
		CHANNELS 3 Zrotation Xrotation Yrotation
		JOINT RightLeg
		{
			OFFSET	 0.000000	 0.000000	 0.570047
			CHANNELS 3 Zrotation Xrotation Yrotation
			JOINT RightFoot
			{
				OFFSET	 0.000000	 0.000000	 0.544354
				CHANNELS 3 Zrotation Xrotation Yrotation
				JOINT RightToeBase
				{
					OFFSET	 0.000000	 0.000000	 0.207540
					CHANNELS 3 Zrotation Xrotation Yrotation
					End Site
					{
						OFFSET	 0.000000	 0.000000	 0.207540
					}
				}
			}
		}
	}
	JOINT Spine
	{
		OFFSET	 0.000184	-0.007763	 0.117403
		CHANNELS 3 Zrotation Xrotation Yrotation
		JOINT Spine1
		{
			OFFSET	 0.000000	 0.000000	 0.137269
			CHANNELS 3 Zrotation Xrotation Yrotation
			JOINT Spine2
			{
				OFFSET	 0.000000	 0.000000	 0.156879
				CHANNELS 3 Zrotation Xrotation Yrotation
				JOINT LeftShoulder
				{
					OFFSET	 0.080501	-0.002496	 0.160144
					CHANNELS 3 Zrotation Xrotation Yrotation
					JOINT LeftArm
					{
						OFFSET	 0.000000	 0.000000	 0.164363
						CHANNELS 3 Zrotation Xrotation Yrotation
						JOINT LeftForeArm
						{
							OFFSET	 0.000000	 0.000000	 0.364576
							CHANNELS 3 Zrotation Xrotation Yrotation
							JOINT LeftHand
							{
								OFFSET	 0.000000	 0.000000	 0.360812
								CHANNELS 3 Zrotation Xrotation Yrotation
								JOINT LeftHandIndex1
								{
									OFFSET	 0.000000	 0.000000	 0.086006
									CHANNELS 3 Zrotation Xrotation Yrotation
									JOINT LeftHandIndex2
									{
										OFFSET	 0.000000	 0.000000	 0.047236
										CHANNELS 3 Zrotation Xrotation Yrotation
										JOINT LeftHandIndex3
										{
											OFFSET	-0.004284	-0.000551	 0.038166
											CHANNELS 3 Zrotation Xrotation Yrotation
											End Site
											{
												OFFSET	-0.004284	-0.000551	 0.038166
											}
										}
									}
								}
							}
						}
					}
				}
				JOINT Neck
				{
					OFFSET	 0.000000	 0.000000	 0.176489
					CHANNELS 3 Zrotation Xrotation Yrotation
					JOINT Head
					{
						OFFSET	 0.000000	-0.001747	 0.077940
						CHANNELS 3 Zrotation Xrotation Yrotation
						End Site
						{
							OFFSET	 0.000000	-0.001747	 0.077940
						}
					}
				}
				JOINT RightShoulder
				{
					OFFSET	-0.080363	 0.000306	 0.159706
					CHANNELS 3 Zrotation Xrotation Yrotation
					JOINT RightArm
					{
						OFFSET	 0.000000	 0.000000	 0.164196
						CHANNELS 3 Zrotation Xrotation Yrotation
						JOINT RightForeArm
						{
							OFFSET	 0.000000	 0.000000	 0.365611
							CHANNELS 3 Zrotation Xrotation Yrotation
							JOINT RightHand
							{
								OFFSET	 0.000000	 0.000000	 0.360648
								CHANNELS 3 Zrotation Xrotation Yrotation
								JOINT RightHandIndex1
								{
									OFFSET	 0.000000	 0.000000	 0.069977
									CHANNELS 3 Zrotation Xrotation Yrotation
									JOINT RightHandIndex2
									{
										OFFSET	 0.000000	 0.000000	 0.052305
										CHANNELS 3 Zrotation Xrotation Yrotation
										JOINT RightHandIndex3
										{
											OFFSET	 0.009002	-0.000782	 0.042196
											CHANNELS 3 Zrotation Xrotation Yrotation
											End Site
											{
												OFFSET	 0.009002	-0.000782	 0.042196
											}
										}
									}
								}
							}
						}
					}
				}
			}
		}
	}
}
MOTION
Frames:    4
Frame Time: 0.03333334
 4.433164	 0.103434	-1.091049	 100.983500	-2.128046	 0.283777	 6.677353	-3.012409	-178.772800	-2.328094	-35.985000	 1.396254	 7.397623	 89.651140	-6.168613	-2.376062	 30.445870	-0.043684	 1.473618	-28.857800	 179.417400	 22.905690	-73.902340	 26.385160	 172.073500	 89.598460	-164.808700	 2.378999	 29.590290	 0.026213	 34.376280	 4.342437	 1.090090	-1.276317	-1.916730	 1.037009	-0.263112	-4.649452	-0.028005	-91.800930	 77.988370	 178.927500	 35.793000	 63.858580	-47.226130	-5.536213	-6.151256	-29.334310	 3.644691	-2.098436	-5.368609	-3.812334	 37.924440	-2.927599	-2.450526	 36.184240	 0.754587	-1.378229	 35.397820	-2.634230	-0.310810	 4.028886	-1.757386	 0.331407	-11.774330	-1.540354	 89.794690	 78.837800	 179.547400	-41.869530	 71.337460	 44.092320	-2.052311	-9.284480	 25.611970	-13.183270	-3.212451	 9.584682	 6.437017	 35.671460	-0.771858	 2.830251	 35.756010	-7.813440	-2.350882	 35.473990	 5.254307
 4.453479	 0.109030	-1.092613	 101.084600	-2.056536	-0.019590	 6.362262	-1.526139	-178.299900	-2.622526	-34.983790	 1.148616	 26.765320	 89.947660	-25.876190	-2.376476	 30.368120	-0.041958	 1.695206	-30.295020	 179.512600	 19.352330	-71.450400	 22.766230	 179.819100	 88.983560	-172.420900	 2.378326	 29.725210	 0.029175	 33.495770	 4.342400	 1.413860	-1.352743	-1.958066	 1.017136	-0.269314	-4.696933	-0.028778	-91.792500	 78.190280	 178.879700	 35.584080	 63.292800	-47.744920	-4.176414	-7.058344	-30.306440	 3.672900	-2.113203	-5.365868	-3.812334	 37.924440	-2.927599	-2.450526	 36.184240	 0.754587	-1.378229	 35.397820	-2.634230	-0.324866	 4.062749	-1.973626	 0.397997	-11.901400	-1.403828	 89.791330	 78.637140	 179.509400	-41.778060	 71.384780	 43.633090	-3.252305	-10.056740	 26.225260	-13.028810	-3.207472	 9.587824	 6.437017	 35.671460	-0.771858	 2.830251	 35.756010	-7.813440	-2.350882	 35.473990	 5.254307
 4.476597	 0.115224	-1.094012	 101.196200	-1.889057	-0.340239	 6.120625	 0.344918	-177.783400	-2.885825	-33.376900	 0.996681	 53.653370	 89.951550	-52.976810	-2.376487	 30.366620	-0.041926	 1.882016	-31.693720	 179.656800	 16.022930	-68.257310	 19.263370	-177.499500	 88.787760	-174.960100	 2.377744	 29.838630	 0.031679	 32.399670	 4.311829	 1.781050	-1.432440	-2.006201	 0.993151	-0.283190	-4.750146	-0.030389	-91.781560	 78.421730	 178.826500	 35.304140	 62.702660	-48.275950	-2.636817	-8.153527	-31.266330	 3.779247	-2.106366	-5.366947	-3.812334	 37.924440	-2.927599	-2.450526	 36.184240	 0.754587	-1.378229	 35.397820	-2.634230	-0.344047	 4.120112	-2.207131	 0.460686	-12.063360	-1.289803	 89.786700	 78.408110	 179.479800	-41.701420	 71.444400	 43.199650	-4.610991	-10.934500	 26.777490	-12.880030	-3.203149	 9.590531	 6.437017	 35.671460	-0.771858	 2.830251	 35.756010	-7.813440	-2.350882	 35.473990	 5.254307
 4.500281	 0.121325	-1.095165	 101.299100	-1.703170	-0.593498	 5.992253	 2.437423	-177.379800	-3.098570	-31.260800	 0.943535	 17.340130	 89.792530	-16.734880	-2.375437	 30.559550	-0.046222	 2.005693	-32.868360	 179.753400	 13.392320	-64.647800	 16.355880	-174.272800	 88.961650	-178.036100	 2.377718	 29.842150	 0.031763	 31.180520	 4.256508	 2.079111	-1.499503	-2.045129	 0.969352	-0.303336	-4.791359	-0.032661	-91.771880	 78.606790	 178.784400	 35.033130	 62.143960	-48.788300	-1.180764	-9.244784	-32.101290	 3.800687	-2.101041	-5.367937	-3.812334	 37.924440	-2.927599	-2.450526	 36.184240	 0.754587	-1.378229	 35.397820	-2.634230	-0.362981	 4.190340	-2.417997	 0.503692	-12.214910	-1.224205	 89.782470	 78.219140	 179.460100	-41.649250	 71.514440	 42.855550	-5.997245	-11.818250	 27.171010	-12.763520	-3.199985	 9.592444	 6.437017	 35.671460	-0.771858	 2.830251	 35.756010	-7.813440	-2.350882	 35.473990	 5.254307
